<svg version="1.1" id="Camada_1" xmlns="http://www.w3.org/2000/svg" xmlns:xlink="http://www.w3.org/1999/xlink" x="0px" y="0px" width="310px" height="284px" viewBox="0 0 310 284" enable-background="new 0 0 310 284" xml:space="preserve"> <g> <linearGradient id="SVGID_1_" gradientUnits="userSpaceOnUse" x1="115.4421" y1="283.3394" x2="115.4421" y2="54.0799"> <stop offset="0" style="stop-color:#1B3E60"></stop> <stop offset="1" style="stop-color:#EE2A59"></stop> </linearGradient> <path fill="url(#SVGID_1_)" d="M208.461,266.862c-5.173,0.598-10.202-0.042-14.373-3.544c-6.337-5.319-12.675-10.644-18.801-16.201
 c-1.747-1.585-2.641-4.072-4.145-5.973c-1.261-1.594-2.61-3.352-4.328-4.299c-2.963-1.633-7.31-3.444-10.73-4.89
 c2.441-1.685,3.387-4.07,2.982-6.832c-0.424-2.899-1.266-5.754-2.121-8.568c-0.806-2.651-2.742-4.132-5.492-4.647
 c-17.09-3.196-34.194-4.716-51.339-0.435c-3.095,0.773-6.133,1.771-9.198,2.665c1.321-1.302,2.897-2.078,4.354-3.035
 c0.783-0.514,1.889-1.3,1.942-2.029c0.199-2.725,0.145-5.485-0.039-8.217c-0.322-4.795-0.813-9.58-1.215-14.37
 c-0.02-0.235,0.185-0.482,0.199-0.729c0.198-3.448,0.381-6.896,0.592-10.8c-5.782,3.195-7.72,3.637-10.28,2.373
 c6.787-1.162,11.189-4.63,12.505-11.422c1.196-6.177-0.468-11.763-3.961-17.696c1.024,0.727,1.389,0.934,1.693,1.21
 c2.705,2.449,2.833,2.512,5.83,0.421c5.452-3.803,9.452-8.576,10.654-15.409c0.308-1.752,1.587-3.334,2.429-4.993
 c0.004-0.003,0.007-0.005,0.011-0.008c0.002-0.008,0.005-0.016,0.007-0.024c0,0-0.002,0.002-0.002,0.002c0,0,0-0.001,0.001-0.001
 l-0.09,0.086c1.646-2.831,3.018-5.7,1.051-9.41c0,0-0.069-0.277-0.18-0.719c0.623,0.044,1.244,0.094,1.86,0.158
 c0.078,1.273,0.04,2.179,0.203,3.046c0.553,2.944-0.521,5.16-2.851,6.861c-1.526,4.891-3.054,9.783-4.545,14.557
 c15.189-1.551,28.787-13.847,33.507-30.561c4.231-14.983-1.654-33.355-15.028-42.641c-19.269-13.379-37.676-9.331-55.038,4.552
 c0.43-0.655,0.909-1.3,1.462-1.874c7.102-7.366,15.995-10.678,25.987-11.785c28.751-3.188,50.34,23.944,44.855,49.788
 c-3.805,17.93-17.185,30.75-35.193,33.883c-1.066,0.185-2.324,0.182-3.132,0.766c-3.244,2.346-6.346,4.888-9.476,7.339
 c3.853,3.984,24.633-0.631,35.052-8.125c20.446-14.705,26.82-42.546,14.893-65.051c-11.284-21.292-37.044-31.51-59.151-23.462
 c-20.781,7.565-38.171,31.988-34.624,48.882c3.92-1.237,7.302-2.869,8.737-7.213c1.82-5.512,1.769-10.952,0.097-16.448
 c-0.301-0.988-0.497-2.009-0.804-3.27c2.551,0.011,3.754,1.434,4.815,2.938c4.042,5.723,5.248,12.151,4.649,19.029
 c-0.071,0.818,0.041,2.3,0.386,2.403c2.772,0.823,5.941,2.487,8.372,1.778c3.706-1.082,7-0.942,10.583-0.226
 c2.401,0.48,4.098,1.705,4.276,3.992c0.223,2.885,0.4,6.018-0.498,8.673c-0.831,2.456-0.195,4.587-0.451,7.588
 c1.123-1.617,4.292-0.506,2.734-3.696c0.475-0.138,0.951-0.267,1.428-0.39c0.07,0.13,0.14,0.261,0.216,0.396
 c0.484,1.181,0.743,1.813,1.054,2.571c-5.95,1.735-10.607,4.91-13.528,10.246c-1.328,2.427-2.703,4.657-5.616,5.467
 c-0.717,0.199-1.284,0.937-1.726,1.277c3.043,0.673,6.053,1.338,9.063,2.003c-0.048,0.257-0.097,0.514-0.145,0.772
 c-3.801-0.032-8.011-3.019-11.446,1.884c0.86-6.531,3.222-11.611,8.63-14.931c1.799-1.104,3.792-1.992,5.337-3.38
 c1.247-1.119,2.293-2.73,2.811-4.323c0.617-1.897-0.818-3.233-2.546-2.329c-4.102,2.146-8.249,0.33-12.48,0.858
 c2.134-3.629,2.894-3.815,6.746-1.542c0.469-0.769,0.995-1.632,1.498-2.457c1.282,0.838,2.1,1.373,2.932,1.917
 c0.597-0.868,1.101-1.601,1.618-2.355c0.882,0.445,1.593,0.804,2.501,1.262c0.371-1.688,1.045-3.185,0.933-4.62
 c-0.167-2.139-0.532-4.431-1.534-6.264c-0.466-0.853-2.629-0.774-4.02-1.128c-0.326-0.083-0.68-0.145-0.956-0.32
 c-1.874-1.188-3.708-0.952-5.493,0.157c-2.043,1.269-4.198,1.243-6.347,0.481c-1.668-0.591-3.22-1.512-4.891-2.093
 c-0.46-0.16-0.922-0.306-1.385-0.44c3.081-8.882-0.967-21.744-6.589-24.205c3.003,7.647,2.413,15.084-0.517,22.605
 c3.142,0.169,4.255,0.659,4.94,1.093c-2.965-0.524-5.916-0.284-8.664,1.458c-3.537,2.242-6.798,1.879-10.277,0.148
 c-5.855-2.913-9.163-8.09-12.181-13.53c-0.789-1.423-1.446-2.92-2.164-4.383c-0.633,1.163-0.885,2.226-0.923,3.298
 c-0.34,9.548,3.945,17.041,10.99,22.917c3.847,3.209,8.536,4.201,13.488,1.62c-0.553,0.759-1.196,1.748-1.958,1.85
 c-1.958,0.262-3.992,0.33-5.954,0.106c-2.257-0.258-2.323-0.345-2.04,2.356c1.715,0,3.467,0,5.219,0
 c-0.002,0.234-0.004,0.469-0.006,0.703c-2.831,0.121-5.663,0.23-8.494,0.365c-3.115,0.148-6.236,0.244-9.342,0.509
 c-1.971,0.168-2.783,1.558-1.883,3.214c1.015,1.868,2.265,3.8,3.895,5.099c2.838,2.263,4.13,1.751,5.655-1.695
 c1.224,1.938,2.922,2.615,5.011,1.87c1.764-0.63,3.48-1.394,5.217-2.098c0.112,0.17,0.224,0.341,0.336,0.511
 c-1.897,1.233-3.794,2.466-5.73,3.725c1.524,4.884-0.162,9.503-1.846,14.048c3.091-0.589,6.101-1.163,9.11-1.736
 c0.054,0.277,0.108,0.554,0.162,0.832c-0.54,0.138-1.072,0.345-1.62,0.404c-6.784,0.735-11.816,4.125-15.454,9.856
 c-0.922,1.453-2.201,2.878-3.654,3.759c-5.286,3.206-8.342,7.838-10.231,13.651c-1.447,4.451-5.741,7.544-6.55,12.431
 c-0.023,0.141-0.243,0.238-0.322,0.383c-1.125,2.06-2.633,4.011-3.27,6.214c-0.979,3.386-1.545,6.924-1.95,10.436
 c-0.769,6.659-1.525,13.304-8.12,17.071c-1.676,0.957-3.401,4.62-4.058,5.896c-2.59,5.029,0.43,5.112,3.376,6.35
 c2.131,0.896,6.768-0.179,4.725,0.881c-2.162,1.121,6.54,6.113,7.849,4.386c2.195-2.896,5.298-4.36,5.751-9.296
 c0.045-0.487-0.018-1.028-0.189-1.485c-1.644-4.385-2.142-8.816,0.29-13.014c1.858-3.208,4.038-6.244,6.246-9.23
 c3.567-4.823,6.948-9.667,5.828-16.261c7.07-1.268,12.476-4.991,17.151-9.975c0.458-0.488,1.283-0.637,1.942-0.933
 c2.426-1.092,5.078-1.859,7.214-3.361c2.003-1.408,3.46-3.593,5.143-5.42c-0.261,4.549-4.481,9.053-9.639,10.83
 c-2.247,0.774-4.348,2.148-6.278,3.572c-0.653,0.482-1.052,2.144-0.738,2.94c0.892,2.263,2.137,4.401,3.376,6.511
 c6.252,10.644,11.579,21.59,12.637,34.185c0.368,4.387,1.439,8.649,4.68,12.06c7.218,7.597,16.229,8.774,25.946,7.35
 c4.58-0.671,8.215-2.655,10.988-6.784c4.27-6.358,10.286-10.719,17.935-12.398c4.497-0.987,8.984-0.846,12.592,0.124
 c-4.288,0.717-9.428,0.969-14.157,2.497c-8.795,2.843-14.407,9.663-18.5,17.553c-3.521,6.786-8.11,12.384-14.419,16.684
 c-1.564,1.066-2.898,2.613-4.003,4.175c-1.962,2.773-0.956,5.273,2.346,6.168c1.381,0.374,2.857,0.4,4.231,0.791
 c1.604,0.457,3.558,0.726,4.634,1.803c3.57,3.569,7.801,3.406,12.291,3.131c4.01-0.245,8.056-0.157,12.072,0.05
 c2.736,0.141,4.872-1.042,5.479-3.813c-1.087-0.326-2.178-0.846-3.309-0.96c-5.643-0.569-10.164-3.499-14.532-6.755
 c-2.399-1.788-2.511-2.569-0.099-4.447c2.861-2.227,5.944-4.173,8.975-6.174c10.821-7.144,21.649-14.277,32.493-21.386
 c-5.246,4.295-10.28,9.022-16.159,13.351c4.906,2.649,9.986,4.151,15.24,4.138c4.598-0.011,7.44,1.875,9.566,5.675
 c2.495,4.458,6.358,7.456,11.079,9.232c4.424,1.664,8.917,3.169,13.444,4.529c4.259,1.28,7.436,3.466,8.567,8.051
 c0.592,2.397,2.404,3.358,4.8,3.256c3.406-0.145,6.272-1.459,8.256-4.261c1.222-1.726,2.596-2.658,4.815-2.582
 c4.248,0.144,7.941-1.1,10.661-4.679c0.662-0.871,1.885-1.352,2.908-1.905c2.423-1.309,4.902-2.53,6.399-6.068
 c-2.002,0.219-3.317,0.327-4.62,0.511C220.329,265.187,214.413,266.174,208.461,266.862z M108.199,113.288
 c0-4.259,0-8.533,0-12.808c0.154-0.017,0.308-0.033,0.462-0.05c0.45,4.315,0.901,8.631,1.365,13.084
 C108.829,113.669,108.199,113.288,108.199,113.288z M100.651,101.563c-1.165,4.452-1.651,9.083-2.44,13.769
 c-0.025,0.083-0.041,0.168-0.042,0.258c-0.003,0.195-0.004,0.404,0.002,0.628c-0.323,0.058-0.646,0.115-0.978,0.172
 c0.659-4.583,1.26-8.989,1.937-13.383c0.373-2.418,1.078-4.801,1.272-7.228c0.321-4.03-0.737-4.82-4.576-3.862
 c-0.716,0.179-1.437,0.335-2.307,0.089c0.812-0.386,1.617-0.786,2.437-1.155c0.764-0.345,1.543-0.657,2.594-1.101
 c-0.67-1.566-1.313-3.066-2.045-4.777c-1.546,0.595-2.985,1.149-4.425,1.704c-0.054-0.114-0.107-0.227-0.161-0.341
 c0.777-0.482,1.535-0.999,2.336-1.438c1.037-0.568,2.001-0.936,1.765-2.598c-0.109-0.762,0.865-2.177,1.663-2.488
 c4.483-1.746,9.141-2.522,13.96-1.597c0.162,0.031,0.43,0.089,0.453,0.182c0.802,3.245,3.879,1.995,6.401,2.91
 c-1.902,0.39-3.747,0.236-4.445,1.056c-0.738,0.868-0.383,2.665-0.525,4.276c1.553,0,2.851,0,4.314,0
 c-0.262,0.325-0.34,0.524-0.454,0.547c-4.916,1.01-6.072,1.618-5.492,6.801c0.744,6.649,2.769,13.157,4.286,19.715
 c0.07,0.305,0.564,0.511,1.145,1.006c-0.715,0-1.412-0.009-2.101-0.02c-0.092-0.353-0.175-0.669-0.243-0.923
 c-0.735-2.737-1.375-5.092-1.998-7.452c-1.645-6.232-3.266-12.463-0.743-18.869c0.12-0.304-0.131-0.754-0.209-1.136
 c0.195-1.479,0.462-2.954,0.568-4.439c0.125-1.764-0.4-2.866-2.57-2.771c-1.967,0.086-3.955-0.276-6.209-0.464
 c2.287,2.049,2.212,2.366-0.623,4c0.542-0.703,1.085-1.405,1.642-2.127c-1.92-0.953-6.196-0.784-7.263,0.35
 c-1.713,1.82-0.045,3.454,0.443,5.132c0.186,0.641,0.474,1.282,0.844,1.836C101.732,92.118,101.945,96.617,100.651,101.563z
 M105.164,130.848c-0.236,6.176-6.269,11.449-13.069,11.403C98.179,140.537,102.222,136.482,105.164,130.848z M90.518,109.325
 c-2.207,1.886-3.835,1.543-4.942-1.37C87.361,108.45,88.913,108.881,90.518,109.325z M46.197,123.354
 c-2.707,0.461-5.198,1.098-4.99,5.143c-1.253-0.704-2.163-0.978-2.706-1.581c-0.69-0.767-1.082-1.801-1.603-2.72
 c0.853-0.447,1.668-1.169,2.565-1.291c3.743-0.51,7.512-0.84,11.271-1.236c0.029,0.217,0.058,0.435,0.087,0.652
 C49.281,122.67,47.752,123.09,46.197,123.354z M20.449,199.863c-1.013,3.154-1.499,6.41-2.315,10.066
 c-1.344-7.422,1.794-13.499,6.166-19.336C22.994,193.679,21.458,196.72,20.449,199.863z M39.237,172.03
 c-2.418,2.143-4.245,4.953-6.026,7.102c0.77-6.114,8.033-12.644,14.121-12.503C44.762,168.303,41.709,169.839,39.237,172.03z
 M76.864,111.25c-2.94,3.335-6.401,3.088-9.794,0.663C70.082,109.818,73.392,108.28,76.864,111.25z M68.344,181.586
 c4.76-1.723,10.354-2.054,13.395-6.794c2.946-4.593,1.826-9.77,1.165-14.804c2.439,5.142,4.07,10.503,0.954,15.798
 C80.378,181.699,74.203,181.449,68.344,181.586z M90.005,207.47c0.226,1.485,0.047,3.032-0.501,4.536
 c-0.379-1.933-0.759-3.866-1.109-5.653c-3.087,1.328-5.715,2.458-8.344,3.589c-0.123-0.248-0.246-0.496-0.369-0.744
 c2.981-1.657,7.127-2.134,7.924-6.161c0.645-3.258-0.077-6.521-1.839-9.366c-3.113,1.316-6.058,2.562-9.274,3.922
 c3.072-2.458,6.852-4.114,8.182-6.927c1.355-2.867,0.3-6.873,0.3-10.582c1.971,3.354,1.655,6.967,1.659,11.113
 c2.533-0.766,4.774-1.444,7.015-2.121c0.088,0.188,0.175,0.375,0.263,0.563c-2.107,1.021-4.214,2.041-6.158,2.983
 c0.711,3.35,1.446,6.815,2.271,10.7c1.408-0.604,2.971-1.274,4.533-1.943c0.104,0.07,0.209,0.141,0.313,0.211
 c-0.997,0.818-1.874,1.965-3.017,2.378C89.969,204.649,89.739,205.725,90.005,207.47z M113.785,248.354
 c3.197-2.44,6.557-4.698,9.544-7.373c2.999-2.685,5.626-5.784,8.734-9.035C128.531,240.722,121.919,245.379,113.785,248.354z
 M173.804,258.901c-3.335-2.19-7.006-3.867-11.018-6.033c9.375,1.266,15.314,6.723,20.46,13.38
 C180.113,263.778,177.127,261.082,173.804,258.901z"></path> <linearGradient id="SVGID_2_" gradientUnits="userSpaceOnUse" x1="234.8864" y1="250.2371" x2="234.8864" y2="0.6606"> <stop offset="0" style="stop-color:#1B3E60"></stop> <stop offset="1" style="stop-color:#EE2A59"></stop> </linearGradient> <path fill="url(#SVGID_2_)" d="M310,229.076c-0.957,0.587-1.208,0.676-1.368,0.849c-0.307,0.332-0.618,0.658-0.929,0.986
 c0.586-2.872-2.559-5.188-2.559-5.188l-0.003,0.003c-0.289-0.267-0.61-0.53-0.979-0.784c-1.586-1.097-3.321-1.979-4.485-2.663
 l-1.342-0.83c0,0,0,0,0,0c-0.179-0.111-0.346-0.229-0.502-0.346c-0.313-0.28-0.653-0.581-1.016-0.899c0,0-0.001-0.001-0.001-0.001
 l0,0.001c-2.034-1.784-4.742-4.088-6.862-5.963l-1.16-1.137l-0.672-0.786l0,0c-1.895-2.69-3.668-5.151-5.362-7.66
 c-1.417-2.1-2.625-4.346-4.105-6.398c-3.568-4.944-8.454-7.348-14.794-6.961c0.965-3.434,1.938-6.567,2.72-9.746
 c1.467-5.964,2.588-11.971,1.765-18.103c0-0.007,0.005-0.012,0.004-0.019c-0.014-0.126-0.038-0.275-0.065-0.432
 c-0.075-0.5-0.159-1-0.261-1.502c-0.079-0.389-0.194-0.724-0.338-1.014c-0.269-0.985-0.533-1.866-0.629-2.183
 c0.684,0.025,1.37,0.054,2.062,0.069c3.187,0.067,3.818-0.964,2.967-4.186c-0.726-2.748-1.68-5.436-2.532-8.15
 c1.455,2.417,2.499,4.985,3.571,7.541c1.103,2.629,3.136,1.316,4.767,0.942c1.816-0.416,2.229-1.865,1.181-3.315
 c-1.771-2.452-3.703-4.793-5.661-7.101c-0.634-0.746-1.371-1.408-2.185-2.141h0c0,0-0.002-0.002-0.003-0.002
 c-0.377-0.339-0.769-0.693-1.177-1.079c0.013-0.002,0.025-0.003,0.038-0.005c-0.885-0.859-2.057-2.041-2.658-2.827
 c-1.041-1.361-2.563-4.191-2.563-4.191l0.008-0.009c-0.518-0.917-0.685-2.175-0.454-3.741c0.603-4.089,1.733-8.199,1.627-12.273
 c-0.208-7.952,2.97-14.959,5.178-22.258c0.52-1.719,2.99-2.815,4.412-1.684c4.28,3.403,9.157,4.794,14.813,4.609
 c-3.624,6.708-3.832,13.885-5.069,20.811c-0.75,4.199-2.145,7.907-5.633,10.687c-0.774,0.617-1.149,1.732-1.784,3.092
 c-0.142,0.303-0.296,0.618-0.471,0.942c0,0-0.267,0.384-0.267,0.825c0,0.44,0.747,3.203,0.747,3.203
 c0.294,1.004,1.276,1.646,2.314,1.514l0.4-0.051c0.009,1.928,0.647,2.024,1.723,2.041c2.951,0.047,5.906-0.252,8.861-0.287
 c2.353-0.028,3.299-1.505,3.741-3.438c0.65-2.843,0.892-5.683-0.872-8.307c-1.292-1.921-1.268-4.443-0.071-6.425
 c2.532-4.193,4.917-8.479,7.573-12.591c2.034-3.148,2.76-6.424,2.379-10.125c-0.156-1.515,0.158-3.179,0.659-4.638
 c0.972-2.836,0.522-4.465-2.3-5.358c-3.243-1.026-5.769-2.966-8.337-5.095c-2.505-2.077-5.464-3.604-8.217-5.383
 c-1.981-1.28-4.222-2.302-5.871-3.923c-3.383-3.326-7.395-5.265-11.866-6.474c-0.815-0.22-1.839-0.205-2.409-0.705
 c-3.744-3.285-8.481-3.23-12.94-3.741c-4.708-0.54-7.706-2.926-9.787-6.938c1.407-0.401,2.722-0.775,4.294-1.223
 c0.001,0,0.03-0.007,0.079-0.023c0.036-0.01,0.071-0.02,0.107-0.03c-0.005,0-0.011-0.001-0.016-0.001
 c0.166-0.062,0.426-0.185,0.667-0.406c0.27-0.248,0.407-0.662,0.468-0.899c0.089-0.17,0.177-0.34,0.266-0.51
 c-0.282-0.855-0.568-1.708-0.846-2.565c-0.857-2.643-1.775-5.268-2.546-7.936c-0.632-2.185,0.554-2.728,2.465-2.386
 c2.662,0.476,3.998,2.391,4.843,4.697c0.783,2.137,1.295,4.375,2.094,6.506c1.468,3.913,5.233,7.699,8.818,8.77
 c-3.484-6.516-2.363-12.892-0.608-19.391c2.752-10.191,0.991-19.847-4.608-28.681c-6.109-9.637-15.251-14.264-26.46-13.259
 c-16.015,1.436-25.799,11.343-31.768,25.592c-0.471,1.123-0.465,2.446-0.758,4.111c8.664-5.134,15.54-5.162,18.591-1.028
 c-1.159,3.28-2.293,6.13-3.169,9.058c-1.257,4.199-2.324,8.456-3.475,12.687c-0.178,0.654-0.37,1.304-0.555,1.956
 c0.216,0.088,0.432,0.177,0.648,0.265c0.434-0.823,0.962-1.611,1.282-2.477c0.642-1.739,1.024-3.587,1.781-5.269
 c1.168-2.594,3.528-3.381,5.841-2.153c1.432,0.76,2.853,1.542,4.081,2.207c-1.191,0.367-2.581,0.69-3.884,1.224
 c-1.674,0.685-3.28,1.536-4.912,2.323c-0.547,0.264-1.429,0.433-1.568,0.845c-0.898,2.65-1.632,5.355-2.592,8.63
 c4.902-1.672,9.43-2.788,13.564-4.739c4.715-2.226,9.117-2.351,13.925-0.543c2.551,0.959,5.285,1.433,7.976,2.018
 c-0.037,0.144-0.09,0.323-0.39,0.609c-0.294,0.28-1.364,0.485-1.986,0.334c-4.574-0.917-8.769-3.686-12.728-3.329
 c-0.364,0.554-0.383,0.938-0.277,1.285c0.963,3.153,0.245,4.407-2.907,4.957c-4.351,0.759-8.705,1.495-13.058,2.241
 c0.032,0.211,0.064,0.423,0.096,0.634c2.375-0.376,4.746-0.966,7.129-1.021c0.921-0.021,2.066,1.025,2.707,1.885
 c0.241,0.323-0.455,1.753-1.07,2.237c-3.09,2.431-6.294,4.715-9.591,7.149c0.006,0.007-0.378-0.421-0.708-0.886
 c-3.983-5.62-9.032-10.038-15.052-13.359c-16.671-9.195-33.192-1.963-37.696,16.504c-2.332,9.559-2.142,19.17,0.047,28.672
 c3.219,13.979,10.059,25.672,22.919,32.924c13.317,7.509,26.473,3.67,33.238-9.651c2.498-4.919,4.386-10.149,6.617-15.391
 c2.809,3.024,3.9,6.685,4.596,10.532c1.205,6.664,4.542,11.317,11.682,12.451c1.998,0.317,3.945,0.957,5.944,1.268
 c2.941,0.458,5.907,0.754,8.862,1.119c-6.035,0.754-13.353-0.044-19.252-2.192c-1.67-0.608-2.796-0.358-4.128,0.68
 c-2.43,1.893-9.094,7.27-10.455,9.085c-1.361,1.815-2.723,3.63-2.269,4.084c0.258,0.258,0.675,0.398,1.15,0.465
 c0.382-0.027,0.743-0.012,1.087,0.04c0.017-0.001,0.034-0.001,0.051-0.002c0.116-0.007,0.146,0.004,0.112,0.026
 c1.011,0.194,1.877,0.745,2.68,1.698c0.576,0.684,1.79,1.275,2.645,1.191c1.832-0.18,3.14,0.287,4.557,1.487
 c4.034,3.417,6.272,2.973,9.167-1.485c0.164-0.253,0.403-0.457,0.607-0.685c0.137,0.074,0.274,0.147,0.411,0.221
 c-0.719,1.444-1.439,2.889-2.4,4.821c2.693,1.367,5.181,3.04,7.923,3.927c4.371,1.413,7.329-0.395,8.742-4.727
 c0.311-0.954,0.662-1.895,0.995-2.843c0.147,0.043,0.294,0.087,0.441,0.13c-0.37,1.777-0.739,3.553-1.177,5.656
 c1.549,0.271,3.102,1.032,4.291,0.653c1.423-0.454,2.828-0.603,4.234-0.631c-0.921,0.134-2.078,0.398-3.402,0.915
 c-0.383,0.15-0.802,0.261-1.233,0.348c-0.938,0.022-1.88,0.029-2.812,0.082c-0.629,0.036-1.349-0.059-1.927,0.084
 c-0.003,0-0.013-0.001-0.013-0.001l-0.002,0.005c-0.138,0.035-0.27,0.08-0.388,0.15c-4.189,2.453-8.256,1.831-12.316-0.26
 c-0.777-0.4-2.666-1.328-3.666-1.859c-0.517-0.606-1.182-1.208-1.385-1.151c-3.038,0.847-5.133-0.908-7.462-2.29
 c-1.197-0.71-2.716-0.87-4.083-1.303c-0.985-0.312-2.258-0.381-2.883-1.047c-2.723-2.9-4.835-2.853-6.863,0.607
 c-4.655,7.941-9.276,15.904-13.736,23.954c-0.714,1.288-0.966,3.168-0.667,4.616c0.816,3.952,2.171,7.791,3.077,11.728
 c1.915,8.327,3.692,16.689,5.583,25.324c0,0.001,0,0.002,0,0.003c0.233,0.987,0.181,2.015,0.172,3.631c-0.001,0-0.001,0-0.002,0
 c0,2.589,0,5.155,0,8.135c-0.421,1.073-1.09,1.743-1.09,1.743c-0.421,0.486-0.907,1.046-1.278,1.474
 c2.166,2.478,4.12,4.965,5.593,8.05c-0.479,0.12-1.085,0.259-1.732,0.399c-1.83-2.562-3.508-4.911-5.189-7.265
 c-1.471,0.928-2.609,1.647-3.598,2.271c1.545,1.988,3.061,3.94,4.536,5.838c-0.649,0.111-1.406,0.223-2.022,0.31
 c-1.512-1.961-2.74-3.552-3.929-5.095c-3.638,1.517-6.908,2.822-10.115,4.267c-0.643,0.29-1.045,1.113-1.558,1.691
 c0.666,0.356,1.321,0.994,1.999,1.019c2.771,0.103,5.559,0.149,8.322-0.044c1.778-0.124,3.524-0.701,5.787-1.182
 c0,0,3.363-0.566,6.197-0.781c1.013,0.078,2.708,0.331,4.342,0.29c-13.129,0.316-8.137,2.612-26.096,2.622
 c-0.517,0-1.048,0.153-2.132,0.328c0.705,0.602,0.858,0.837,1.054,0.882c0.738,0.168,1.498,0.423,2.234,0.38
 c6.123-0.358,10.164-0.332,16.864-1.907c4.079-0.959,8.213-0.44,13.829-2.014c0.475-0.133,0.825-0.794,1.232-1.211
 c-0.554-0.171-1.099-0.403-1.667-0.489c-0.303-0.046-0.645,0.162-0.969,0.254c-0.311,0.088-0.622,0.172-0.933,0.259
 c1.47-1.119,1.817-3.45,1.899-4.462c0.008-0.081,0.013-0.162,0.017-0.243c0.008-0.153,0.01-0.248,0.01-0.248l-0.004,0.004
 c-0.01-1.97-1.216-3.882-1.794-5.852c-0.223-0.681-0.495-1.249-0.603-1.867c-0.137-2.938-0.263-5.656-0.37-7.952c0,0,0,0,0,0
 c-0.046-1.037,0.255-1.834,0.438-2.586c0.006,0,0.012,0,0.018,0c0.014-0.09,0.029-0.179,0.043-0.269
 c0.013-0.065,0.021-0.129,0.031-0.194c1.866-11.761,5.95-23.342-2.454-34.939c7.002-4.533,13.786-8.912,20.547-13.329
 c0.411-0.268,0.893-0.824,0.899-1.252c0.044-2.803,0.426-5.119,0.534-7.697c0.001,0.005,0.002,0.011,0.003,0.015
 c1.261,8.942,3.033,17.847,4.335,26.784c0.951,6.525,5.096,10.628,10.485,13.815c4.217,2.494,8.425,5.01,12.557,7.641
 c5.18,3.297,10.279,6.721,15.684,10.268l2.24,1.216v0c2.201,1.479,5.682,3.793,8.029,5.37c0.054,0.055,0.106,0.115,0.155,0.183
 c0.053,0.088,0.107,0.177,0.153,0.261c0.009,0.017,0.018,0.033,0.027,0.046c0.222,0.417,0.357,0.788,0.435,1.114
 c0.176,0.717,0.07,1.01-0.155,1.707c3.258,0.891,6.416,1.755,9.65,2.64c-0.971,0.595-1.834,1.76-1.834,1.76
 c-3.087-0.778-5.395-1.36-8.187-2.064c-0.407,1.376-0.681,2.298-0.898,3.033c2.312,0.679,3.99,1.172,6.477,1.902
 c-0.56,0.653-1.104,1.185-1.873,1.431c-3.374-1.86-4.579-1.484-7.152,1.366c-0.547,0.605-1.364,0.961-2.035,1.459
 c-2.194,1.629-3.971,3.539-4.691,6.146c0.208,0.127,0.416,0.253,0.624,0.38c0.678,0,3.991-0.843,8.567-4.68
 c2.15-1.549,3.87-2.789,5.688-4.098c0,0,0,0,0,0c0.8-0.29,1.874-1.711,1.874-1.711l0,0c0.572-0.65,1.41-1.603,2.571-2.923
 c0,0,0,0,0,0c1.072-0.862,2.374-1.229,3.151-1.381c0.099,0.011,0.201,0.02,0.308,0.018c-6.403,6.441-13.502,11.96-21.895,15.785
 c-0.462,0.211-0.691,0.933-1.029,1.416c0.647,0.049,1.384,0.326,1.929,0.114c9.947-3.872,17.464-11.085,24.921-18.348
 C310.161,231.418,309.909,230.356,310,229.076z M296.911,111.007c1.181-2.148,2.031-4.478,3.165-7.04
 c-0.324,5.804-3.381,9.705-7.211,13.178C294.227,115.106,295.735,113.148,296.911,111.007z M290.237,92.149
 c-3.572-1.53-6.677-2.86-10.197-4.368C284.148,87.897,287.218,89.309,290.237,92.149z M273.523,76.479c1.764,0,3.428,0,5.265,0
 c-5.427,3.992-5.033,9.59-3.861,15.598c-1.024-0.962-1.804-1.694-2.522-2.369c1.792-1.756,0.137-2.883-0.837-4.097
 c2.242-0.866,2.217-2.289-0.223-5.489c1.059,0.224,1.692,0.357,2.359,0.498c0.583-0.902,1.126-1.743,1.761-2.727
 C274.841,77.439,274.207,76.978,273.523,76.479z M245.629,32.013C245.629,32.013,245.629,32.013,245.629,32.013
 c0.167-1.172,0.334-2.342,0.52-3.641c-1.107,0-2.066,0-3.021,0c-0.116-1.322-0.231-2.646-0.354-4.051
 c-1.35,0.18-2.539,0.339-3.726,0.497c-0.341-1.141-0.681-2.278-0.946-3.163c-1.319,0.221-2.481,0.415-3.641,0.61
 c-0.003-0.007-0.006-0.014-0.009-0.021c-0.011,0.008-0.022,0.015-0.033,0.023c-0.66-0.744-1.322-1.492-2.068-2.333
 c-0.675,0.74-1.322,1.449-1.969,2.158c0.485-1.425,0.969-2.849,1.454-4.274l0.282-1.034l0.382,0.873c0.001,0,0.002,0,0.003,0
 c0.65,1.529,1.299,3.058,1.949,4.587c1.458-0.994,2.917-1.989,4.493-3.065c0.184,1.705,0.359,3.336,0.551,5.115
 c1.621-0.612,3.007-1.135,4.751-1.793c-0.271,1.929-0.487,3.464-0.729,5.187c1.616-0.154,2.985-0.284,4.802-0.456
 C247.268,29.099,246.449,30.556,245.629,32.013z M216.441,23.34c6.45-8.553,17.134-10.727,25.938-5.709
 c7.927,4.518,11.994,15.64,8.502,23.735c1.222-9.592-0.965-17.83-9.924-22.781C231.951,13.609,224.109,17.064,216.441,23.34z
 M218.709,36.851c3.805,0.609,7.225,1.376,10.683,1.647c3.517,0.275,7.072,0.061,10.377,0.061
 C232.971,39.994,225.868,40.645,218.709,36.851z M233.917,49.403c-3.068-0.164-6.199,0.847-9.009,1.297
 c4.376-3.209,10.379-3.039,18.022,1.043C239.928,50.915,236.954,49.566,233.917,49.403z M227.462,24.694
 c-0.784,0.205-1.678,0.45-2.345,0.771l-0.27-0.578c-1.397-0.27-2.793-0.54-4.338-0.839c-0.204,0.697-0.405,1.385-0.607,2.073
 c-0.167,0.013-0.334,0.026-0.502,0.039c-0.09-1.197-0.18-2.394-0.303-4.043c1.848,0.683,3.368,1.244,5.259,1.942
 c0.131-1.668,0.251-3.188,0.432-5.491c1.65,1.615,2.881,2.818,4.111,4.021c-0.944-0.462-1.887-0.925-3.07-1.504
 c-0.356,1.377-0.648,2.509-0.938,3.63l0.068,0.012c4.701-2.26,9.392-1.949,14.075,0.138c1.342,1.177,2.683,2.354,4.025,3.532
 c0.744,0.98,2.019,4.446,2.826,6.719c0.158,0.445,0.28,0.777,0.508,1.279c0,0-0.001,0.001-0.001,0.001
 c-0.134,0.084-0.344,0.342-0.447,0.457c-0.224,0.25-0.37,0.33-0.627,0.664c-0.274-1.093-0.536-2.135-0.796-3.177
 C242.567,26.485,235.601,22.571,227.462,24.694z M194.477,131.702c-5.357-1.261-9.993-3.894-13.559-7.994
 c-12.013-13.813-15.923-29.907-11.439-47.499c3.376-13.246,15.874-17.528,27.324-10.005c3.276,2.152,6.033,5.094,9.028,7.673
 c-0.158,0.182-0.315,0.365-0.473,0.547c-2.483-1.963-4.874-4.058-7.47-5.857c-3.524-2.442-7.449-3.855-11.794-4.209
 c-5.332-0.435-9.102,1.932-11.976,6.132c-3.276,4.788-4.451,10.265-4.455,15.894c-0.007,11.017,2.456,21.48,8.312,30.943
 c3.132,5.061,7.285,9.105,12.852,11.483c7.934,3.39,13.937,1.803,19.24-5.032c0.23-0.297,0.505-0.56,0.962-1.06
 C208.653,129.999,201.055,133.25,194.477,131.702z M188.878,85.72c-1.789-0.396-3.713-0.291-5.568-0.193
 c0,0-0.709,0.035-1.49,0.131c0.243-0.343,0.544-0.636,0.835-0.766c2.425-1.081,4.871-0.89,7.242,0.42
 c1.559,0.861,2.834,8.049,2.234,9.651c-0.383,1.021-3.557,5.572-5.587,3.847l1.46-0.745l0.007-0.087
 c0.512-0.208,1.296-0.78,1.777-1.393c0.38-0.484,1.018-1.363,1.361-1.882C191.93,93.521,190.428,86.333,188.878,85.72z
 M185.906,80.912c-0.183,0.087-0.366,0.175-0.548,0.262c-2.206-3.972-4.412-7.944-6.67-12.009c3.634-0.991,8.536,3.705,9.86,9.02
 c-2.365-2.784-3.688-6.387-7.938-8.065C182.575,74.126,184.24,77.519,185.906,80.912z M192.413,96.681
 c3.05,6.474,3.356,12.925,2.427,19.537C194.055,109.906,193.26,103.502,192.413,96.681z M213.789,112.895
 c-0.961,1.788-1.651,3.313-1.753,5.02c-1.976-0.965-3.785-1.682-5.389-2.716c-0.598-0.386-1.125-1.587-0.993-2.287
 c0.855-4.539-1.854-6.544-5.682-8.153c-0.012,4.997,0.545,10.027-2.182,14.523c4.476-21.987-8.913-33.562-7.403-36.209
 c1.218-2.135,3.098-0.591,4.706,1.886c1.361,2.098,2.323,4.484,3.254,6.825c0.889,2.234,2.157,3.807,5.074,3.926
 c-0.439-1.281-0.851-2.481-1.318-3.84c3.392,0.149,6.427-0.051,6.827,0.848c0.598,1.342,3.72,5.468,5.713,6.928
 c-0.266-4.007-0.474-7.144-0.682-10.281c0.167-0.018,0.333-0.037,0.5-0.055c0.597,3.473,1.193,6.947,1.821,10.602
 c-0.865,0-1.573,0-2.375,0c-0.508-0.038-1.187-0.164-1.957-0.342c-0.288-0.319-0.598-0.61-0.924-0.875
 c-3.468-7.514-2.451-5.616-7.892-5.937c1.011,1.976,1.839,3.411,2.54,4.454c0.06,0.192,0.12,0.385,0.183,0.577
 c-1.222-0.403-2.286-0.771-2.954-1.006c-0.226-0.099-0.47-0.185-0.731-0.26c-0.007-0.003-0.017-0.006-0.017-0.006v0.001
 c-0.155-0.044-0.314-0.085-0.482-0.121c-1.253-0.266-2.59-1.564-3.277-2.75c-1.256-2.168-1.96-4.648-3.077-6.907
 c-1.049-2.12-3.424-4.842-4.323-3.122c-0.614,1.175,3.943,5.159,5.194,8.639c0.825,2.296,1.852,4.58,2.239,6.958
 c0.672,4.129,3.647,5.697,7.522,7.578l0,0.001c0,0,0.003,0.001,0.003,0.001c0.103,0.05,0.205,0.1,0.309,0.15
 c-0.001-0.013-0.003-0.026-0.004-0.039c0.18,0.067,0.435,0.163,0.742,0.284c-0.002,0.168-0.004,0.335-0.001,0.502
 c-0.582,7.321,0.171,7.365,4.144,8.363c0.696-1.665,1.197-2.863,1.507-3.75c0.006,0.003,0.011,0.007,0.017,0.01
 c0.323-0.666,0.587-1.316,0.808-1.951c0.792,0.51,1.507,1.049,2.045,1.602c0,0,0.001,0.001,0.001,0.001
 c0.052,0.067,0.106,0.131,0.16,0.187c0.732,0.764,1.722,1.282,2.93,2.136C216.329,113.795,215.914,113.354,213.789,112.895z
 M222.1,107.415c-0.409-2.234-0.687-4.502-1.262-6.692c-0.651-2.48-1.018-5.304-2.479-7.251
 c-3.769-5.024-4.026-10.553-3.285-16.433c0.057,1.086,0.099,2.173,0.175,3.257c0.3,4.263,1.109,8.324,3.791,11.873
 c2.064,2.732,3.433,5.733,3.055,9.396C221.902,103.442,222.422,105.393,222.1,107.415z M243.272,66.107
 c-3.217,3.481-7.595,4.2-11.604,1.905C235.754,68.752,239.664,68.517,243.272,66.107z M248.082,67.205
 c-1.809,3.933-6.187,6.246-11.434,6.04c-5.186-0.203-8.752-2.316-10.266-6.379C233.305,73.929,240.059,73.937,248.082,67.205z
 M224.877,98.539c2.922,2.008,5.813,1.909,8.448,0C230.684,101.34,227.876,101.294,224.877,98.539z M249.227,126.413
 c-2.513-0.096-5.026-0.192-7.977-0.305c0.278,1.577,0.578,3.282,0.878,4.987c-0.925-1.061-1.562-2.272-1.846-3.562
 c-0.334-1.515-0.863-2.325-2.623-2.288c-1.068,0.023-2.15-0.641-3.226-0.996c0.063-0.091,0.127-0.181,0.19-0.272
 c1.493,0.055,2.986,0.111,4.332,0.16c-0.552-3.447-1.045-6.52-1.521-9.493c-1.892-0.158-3.942-0.328-5.993-0.499
 c0.013-0.182,0.025-0.363,0.038-0.545c2.052-0.153,4.104-0.306,6.424-0.479c-1.308-3.401-2.709-6.265-2.153-9.638
 c1.173,3.041,1.574,6.66,3.592,8.583c1.98,1.887,5.603,2.05,8.9,3.094c-3.067-0.099-5.876-0.189-8.845-0.284
 c-0.546,2.89-0.106,5.794,1.453,8.262c1.927,3.05,5.477,2.131,8.446,2.547C249.272,125.928,249.249,126.17,249.227,126.413z
 M233.375,79.876c0.433,14.864,4.216,21.658,19.351,23.661C240.241,106.244,229.148,93.097,233.375,79.876z M264.201,71.978
 c-0.604,7.448-0.455,14.266,4.255,20.109C262.337,88.536,261.501,78.61,264.201,71.978z M219.039,222.637
 c-0.918,1.15-1.836,2.3-2.895,3.627c1.206,1.312,2.177,2.192,3.265,3.464l-0.819,0.549c-1.401-1.273-2.841-2.543-3.312-2.971
 c-1.051,1.151-1.992,2.172-3.129,3.366c-0.47-0.243-0.705-0.369-0.909-0.603c1.209-1.288,1.954-2.73,2.935-3.774
 c-0.946-1.248-1.882-2.482-2.818-3.715c0.18-0.174,0.361-0.347,0.541-0.521l0,0c1.151,1.037,2.302,2.074,3.367,3.034
 c1.062-0.961,2.02-1.827,2.969-2.686c0.172-0.032,0.329-0.067,0.47-0.106C218.816,222.412,218.928,222.524,219.039,222.637z
 M217.683,207.378c-0.265-3.13-0.321-6.296-0.853-9.379c-0.534-3.094-1.544-6.107-2.457-9.578
 C218.686,194.492,218.743,200.84,217.683,207.378z M271.931,201.365c-2.625-1.724-5.515-3.044-8.673-4.749
 c7.379,0.997,12.055,5.292,16.105,10.532C276.897,205.204,274.547,203.082,271.931,201.365z M296.981,221.861
 c-1.994,0-4.992-0.548-4.992-0.548s1.038,2.88,1.53,4.501l-0.608,0.09c-0.027-0.071-0.079-0.217-0.079-0.217l-2.324-4.494
 c0,0-3.807-0.339-5.477-0.652l0.31-1.295c1.805,0.253,3.179,0.446,4.866,0.683c-0.641-1.662-1.146-2.969-1.722-4.461v0l0.928-0.735
 l2.216,5.405c0,0,4.037,0.424,5.814,0.923L296.981,221.861z"></path> </g> </svg>