<svg version="1.1" id="Camada_1" xmlns="http://www.w3.org/2000/svg" xmlns:xlink="http://www.w3.org/1999/xlink" x="0px" y="0px" width="1004px" height="1000px" viewBox="0 0 1004 1000" enable-background="new 0 0 1004 1000" xml:space="preserve"> <g> <g> <path fill="#ee2a59" d="M290.394,647.561c-0.487,0-0.977-0.027-1.468-0.081c-3.995-0.438-7.518-2.625-9.667-6.001
 c-26.789-42.089-40.949-91.012-40.949-141.48c0-21.439,2.532-42.694,7.524-63.184l-85.599-25.125
 c-3.703,14.347-6.544,29.121-8.445,43.922c-0.867,6.747-6.641,11.835-13.432,11.835c-0.577,0-1.164-0.038-1.746-0.113
 c-3.591-0.461-6.789-2.294-9.002-5.161c-2.214-2.866-3.179-6.424-2.718-10.016c10.798-84.074,48.265-160.275,108.352-220.367
 c22.119-22.115,46.703-41.385,73.091-57.296l-45.318-81.792c-16.815,9.963-33.247,21.121-48.85,33.172
 c-2.395,1.85-5.258,2.827-8.279,2.827c-4.239,0-8.154-1.921-10.741-5.27c-4.57-5.917-3.474-14.45,2.443-19.021
 C284.03,36.105,389.984,0,502,0s217.97,36.105,306.411,104.41c5.916,4.572,7.012,13.104,2.443,19.021
 c-2.588,3.349-6.503,5.27-10.741,5.27c-3.02,0-5.884-0.978-8.281-2.827C708.185,61.268,607.962,27.119,502,27.119
 c-76.921,0-150.016,17.642-217.263,52.436l45.309,81.777c34.696-17.63,72.006-29.76,110.909-36.059
 c3.928-0.638,7.913,0.47,10.934,3.035c2.982,2.534,4.698,6.228,4.707,10.138l0.001,0.392c0.015,6.595-4.784,12.164-11.411,13.24
 c-73.274,11.888-139.91,46.062-192.702,98.824l-0.059,0.06c-38.612,38.614-67.008,83.949-84.403,134.75l85.595,25.125
 c6.639-18.56,15.437-36.437,26.155-53.143c2.163-3.373,5.698-5.554,9.699-5.985c4.015-0.43,7.955,0.952,10.804,3.802l0.51,0.509
 c4.419,4.418,5.093,11.279,1.639,16.684c-10.934,17.111-19.598,35.521-25.752,54.719c0.035,1.416-0.147,2.813-0.541,4.153
 c-0.417,1.422-1.055,2.753-1.897,3.957c-5.842,20.798-8.805,42.488-8.805,64.467c0,45.088,12.628,88.845,36.518,126.541
 c3.409,5.379,2.725,12.201-1.663,16.589l-0.562,0.563C297.224,646.192,293.887,647.561,290.394,647.561z M159.528,410.442
 l87.505,25.684l-0.114,0.463c-5.049,20.556-7.609,41.89-7.609,63.41c0,50.278,14.106,99.015,40.793,140.943
 c1.985,3.118,5.24,5.139,8.932,5.544c3.711,0.405,7.349-0.868,9.981-3.5l0.562-0.563c4.056-4.055,4.682-10.367,1.525-15.348
 c-23.992-37.857-36.673-81.798-36.673-127.076c0-22.1,2.982-43.908,8.865-64.82l0.074-0.153c0.803-1.132,1.41-2.387,1.804-3.732
 c0.373-1.267,0.54-2.588,0.498-3.928l-0.002-0.086l0.026-0.082c6.182-19.31,14.892-37.825,25.888-55.034
 c3.199-5.006,2.58-11.354-1.504-15.439l-0.51-0.509c-2.635-2.635-6.277-3.91-9.99-3.515c-3.698,0.399-6.966,2.415-8.965,5.531
 c-10.763,16.776-19.582,34.737-26.213,53.384l-0.159,0.445l-0.453-0.134l-87.049-25.551l0.168-0.494
 c17.421-51.123,45.936-96.734,84.753-135.57l0.062-0.063c52.95-52.944,119.793-87.233,193.303-99.158
 c6.139-0.997,10.586-6.15,10.572-12.253l-0.001-0.39c-0.008-3.617-1.596-7.036-4.355-9.379c-2.797-2.376-6.491-3.397-10.127-2.812
 c-38.96,6.308-76.321,18.482-111.045,36.183l-0.43,0.22l-46.275-83.519l0.456-0.236C351.337,43.88,424.744,26.12,502,26.12
 c106.185,0,206.619,34.221,290.442,98.964c2.22,1.713,4.873,2.618,7.67,2.618c3.927,0,7.553-1.779,9.951-4.882
 c4.232-5.481,3.216-13.385-2.263-17.62C719.536,37.031,613.792,0.999,502,0.999S284.464,37.031,196.201,105.2
 c-5.481,4.235-6.496,12.139-2.263,17.62c2.396,3.102,6.023,4.882,9.95,4.882c2.798,0,5.45-0.905,7.668-2.618
 c15.772-12.181,32.391-23.454,49.394-33.504l0.442-0.261l46.283,83.535l-0.413,0.249c-26.475,15.917-51.136,35.223-73.297,57.382
 c-59.944,59.946-97.313,135.947-108.082,219.8c-0.427,3.329,0.467,6.623,2.518,9.279c2.051,2.656,5.012,4.353,8.339,4.78
 c0.54,0.07,1.085,0.105,1.619,0.105c6.29,0,11.639-4.713,12.441-10.963c1.928-15.014,4.821-30.001,8.599-44.545L159.528,410.442z"></path> </g> <g> <path fill="#ee2a59" d="M443.138,876.674c-0.726,0-1.456-0.059-2.184-0.177c-78.982-12.785-150.801-49.613-207.695-106.505
 c-23.378-23.377-43.531-49.435-59.92-77.469l-81.885,44.129c10.367,17.754,22.046,35.071,34.719,51.48
 c4.569,5.918,3.473,14.449-2.443,19.019c-2.394,1.851-5.257,2.829-8.279,2.829c-4.239,0-8.155-1.921-10.741-5.27
 C37.22,717.328,1.122,612.68,0.318,502.081l-0.008-0.134c-0.006-0.082-0.011-0.164-0.011-0.247l0.009-1.69L0.299,498.3
 c0-0.086,0.005-0.17,0.011-0.255l0.008-0.144c0.818-112.805,38.221-219.12,108.167-307.437c2.247-2.841,5.466-4.636,9.064-5.055
 c3.601-0.414,7.145,0.592,9.985,2.844c2.839,2.247,4.633,5.466,5.051,9.064c0.418,3.597-0.591,7.142-2.839,9.981
 C63.175,291.357,27.794,392.577,27.427,500.016c0.261,75.239,17.431,146.848,51.028,212.832l82.052-44.219
 c-18.268-37.198-30.25-77.237-35.615-119.016c-0.952-7.415,4.306-14.224,11.721-15.177c7.508-0.952,14.238,4.406,15.178,11.722
 c10.028,78.072,44.826,148.839,100.634,204.651l0.059,0.06c39.708,39.688,86.452,68.535,138.947,85.752l24.815-86.519
 c-18.872-6.531-37.05-15.272-54.034-25.985c-3.359-2.119-5.541-5.61-5.984-9.575c-0.446-3.99,0.922-7.901,3.753-10.732l0.72-0.721
 c4.333-4.334,11.076-5.022,16.399-1.681c37.274,23.405,80.462,35.862,124.894,36.022c45.529-0.16,89.604-13.173,127.457-37.631
 c5.404-3.493,12.275-2.835,16.708,1.598l0.523,0.523c2.835,2.835,4.219,6.754,3.797,10.751c-0.419,3.981-2.578,7.508-5.922,9.678
 c-41.903,27.186-90.741,41.769-141.232,42.173c-0.037,0.002-0.087,0.01-0.138,0.018c-0.254,0.036-0.519,0.025-0.781,0.019
 c-0.271-0.007-0.542-0.009-0.818,0c-0.259,0.007-0.519,0.018-0.767-0.019c-0.049-0.007-0.098-0.016-0.148-0.017
 c-19.763-0.158-39.402-2.478-58.371-6.895l-24.793,86.443c9.151,2.237,18.46,4.129,27.677,5.625
 c6.627,1.074,11.426,6.644,11.411,13.241l-0.001,0.392c-0.009,3.909-1.725,7.605-4.708,10.137
 C449.427,875.552,446.326,876.674,443.138,876.674z M173.715,691.185l0.243,0.418c16.39,28.119,36.574,54.251,59.992,77.671
 c56.76,56.754,128.391,93.487,207.164,106.239c3.639,0.59,7.33-0.436,10.127-2.811c2.76-2.343,4.347-5.762,4.356-9.378l0.001-0.39
 c0.014-6.105-4.433-11.258-10.572-12.254c-9.413-1.527-18.921-3.466-28.26-5.765l-0.503-0.124l25.341-88.355l0.463,0.109
 c19.04,4.471,38.765,6.818,58.627,6.977c0.1,0.003,0.185,0.015,0.271,0.026c0.192,0.027,0.395,0.016,0.595,0.009
 c0.294-0.008,0.588-0.008,0.877,0c0.203,0.007,0.411,0.018,0.61-0.009c0.084-0.013,0.17-0.023,0.257-0.027
 c50.316-0.402,98.968-14.929,140.712-42.012c3.09-2.005,5.084-5.264,5.472-8.944c0.39-3.696-0.89-7.32-3.51-9.94l-0.523-0.523
 c-4.097-4.097-10.455-4.7-15.46-1.465c-38.014,24.562-82.275,37.63-127.999,37.791c-44.623-0.161-87.993-12.67-125.426-36.174
 c-4.925-3.095-11.16-2.459-15.161,1.54l-0.72,0.721c-2.615,2.616-3.878,6.229-3.466,9.915c0.409,3.663,2.423,6.886,5.524,8.842
 c17.054,10.757,35.314,19.518,54.274,26.039l0.448,0.154l-25.362,88.426l-0.493-0.16c-52.869-17.255-99.935-46.26-139.89-86.211
 l-0.059-0.06c-55.936-55.962-90.812-126.906-100.864-205.176c-0.87-6.777-7.096-11.753-14.061-10.857
 c-6.868,0.882-11.738,7.189-10.856,14.059c5.372,41.83,17.394,81.912,35.733,119.134l0.213,0.431l-0.424,0.229L78.03,714.212
 l-0.232-0.455c-33.824-66.252-51.107-138.166-51.37-213.741c0.367-107.668,35.823-209.101,102.534-293.338
 c2.083-2.629,3.017-5.913,2.63-9.246c-0.387-3.333-2.049-6.315-4.679-8.397c-2.631-2.085-5.917-3.025-9.249-2.633
 c-3.333,0.387-6.314,2.05-8.396,4.682C39.463,279.225,2.134,385.327,1.318,497.92l-0.011,0.195
 c-0.004,0.061-0.009,0.122-0.009,0.184l0.009,1.711l-0.009,1.69c0,0.06,0.004,0.118,0.009,0.177l0.01,0.186
 C2.119,612.453,38.145,716.891,105.5,804.099c2.397,3.102,6.023,4.882,9.951,4.882c2.798,0,5.45-0.906,7.668-2.62
 c5.481-4.233,6.496-12.136,2.263-17.618c-12.806-16.58-24.599-34.087-35.052-52.034l-0.26-0.447L173.715,691.185z"></path> </g> <g> <path fill="#ee2a59" d="M888.55,809.98c-3.02,0-5.885-0.979-8.282-2.829c-2.866-2.214-4.698-5.412-5.16-9.003
 c-0.461-3.593,0.504-7.15,2.72-10.016c64.233-83.165,98.377-182.795,98.744-288.12c-0.257-75.326-17.417-146.948-51-212.874
 l-83.203,44.839c18.595,37.534,30.772,77.966,36.193,120.181c0.461,3.592-0.503,7.15-2.717,10.016
 c-2.215,2.867-5.412,4.699-9.004,5.161c-0.581,0.075-1.169,0.113-1.745,0.113c-6.791,0-12.566-5.088-13.433-11.835
 c-10.026-78.072-44.825-148.839-100.634-204.65c-39.629-39.626-86.273-68.456-138.64-85.697l-23.592,84.972
 c19.228,6.74,37.717,15.781,54.958,26.875c3.349,2.155,5.514,5.672,5.939,9.649c0.428,3.994-0.951,7.91-3.784,10.742l-0.599,0.601
 c-4.404,4.402-11.238,5.069-16.615,1.622c-37.682-24.148-81.496-36.996-126.705-37.155c-44.115,0.158-87.04,12.45-124.13,35.548
 c-5.297,3.299-12.003,2.6-16.305-1.702l-0.796-0.796c-2.829-2.828-4.192-6.736-3.738-10.723c0.45-3.961,2.637-7.439,5.999-9.542
 c41.065-25.696,88.669-39.485,137.664-39.877c0.038-0.001,0.086-0.01,0.134-0.017c0.249-0.036,0.509-0.026,0.769-0.02
 c0.27,0.007,0.54,0.007,0.818,0c0.26-0.007,0.525-0.02,0.779,0.02c0.051,0.007,0.101,0.016,0.153,0.017
 c20.154,0.162,40.152,2.561,59.433,7.13l23.547-84.812c-9.296-2.284-18.73-4.208-28.049-5.719
 c-6.627-1.075-11.426-6.645-11.411-13.241l0.001-0.392c0.009-3.909,1.725-7.604,4.708-10.137
 c3.021-2.565,7.006-3.671,10.933-3.035c78.983,12.786,150.803,49.615,207.695,106.505c23.064,23.063,42.996,48.745,59.262,76.347
 l83.107-44.787c-11.33-19.394-24.218-38.247-38.308-56.04c-2.25-2.839-3.258-6.384-2.841-9.981
 c0.418-3.598,2.212-6.817,5.052-9.064c2.84-2.25,6.381-3.257,9.982-2.841c3.598,0.418,6.817,2.212,9.064,5.052
 c69.946,88.315,107.349,194.63,108.167,307.448l0.008,0.134c0.006,0.084,0.012,0.168,0.012,0.254l-0.009,1.713l0.009,1.688
 c0,0.085-0.006,0.168-0.012,0.251l-0.008,0.141c-0.804,110.591-36.902,215.238-104.393,302.617
 C896.703,808.059,892.789,809.98,888.55,809.98z M925.998,285.774l0.232,0.455c33.81,66.194,51.084,138.121,51.341,213.783
 c-0.367,105.551-34.585,205.391-98.953,288.731c-2.052,2.656-2.946,5.95-2.519,9.278c0.427,3.328,2.125,6.29,4.779,8.34
 c2.22,1.714,4.873,2.62,7.671,2.62c3.928,0,7.553-1.779,9.948-4.882c67.355-87.205,103.382-191.643,104.184-302.026l0.011-0.192
 c0.004-0.06,0.009-0.12,0.009-0.18l-0.009-1.69l0.009-1.711c0-0.062-0.005-0.123-0.009-0.184l-0.011-0.183
 c-0.817-112.607-38.145-218.709-107.951-306.847c-2.082-2.631-5.064-4.293-8.397-4.68c-3.333-0.383-6.616,0.547-9.247,2.631
 c-2.631,2.082-4.293,5.064-4.68,8.397c-0.386,3.333,0.548,6.615,2.631,9.246c14.229,17.967,27.232,37.011,38.649,56.603
 l0.26,0.447l-84.864,45.735l-0.243-0.416c-16.268-27.688-36.231-53.443-59.336-76.549
 c-56.759-56.753-128.39-93.486-207.164-106.238c-3.64-0.585-7.33,0.436-10.127,2.812c-2.759,2.343-4.347,5.762-4.355,9.378
 l-0.001,0.39c-0.014,6.104,4.433,11.257,10.572,12.254c9.512,1.542,19.144,3.513,28.628,5.857l0.499,0.123l-0.137,0.496
 l-23.943,86.235l-0.468-0.112c-19.353-4.624-39.435-7.051-59.689-7.213c-0.102-0.003-0.189-0.015-0.277-0.027
 c-0.196-0.028-0.403-0.016-0.606-0.009c-0.295,0.008-0.59,0.008-0.877,0c-0.199-0.007-0.402-0.02-0.593,0.009
 c-0.086,0.013-0.172,0.024-0.26,0.027c-48.823,0.39-96.246,14.127-137.155,39.725c-3.103,1.941-5.121,5.152-5.536,8.809
 c-0.419,3.682,0.84,7.292,3.452,9.903l0.796,0.796c3.972,3.973,10.169,4.615,15.07,1.56
 c37.247-23.196,80.353-35.54,124.658-35.699c45.403,0.16,89.402,13.063,127.244,37.313c4.98,3.192,11.3,2.579,15.369-1.488
 l0.599-0.601c2.619-2.618,3.894-6.237,3.498-9.93c-0.394-3.675-2.394-6.924-5.487-8.914
 c-17.307-11.137-35.875-20.197-55.188-26.926l-0.442-0.154l24.122-86.882l0.497,0.162c52.721,17.272,99.665,46.239,139.527,86.098
 c55.971,55.974,90.868,126.941,100.924,205.235c0.803,6.25,6.152,10.963,12.442,10.963c0.534,0,1.078-0.035,1.618-0.105
 c3.328-0.427,6.29-2.125,8.34-4.78c2.051-2.656,2.944-5.95,2.517-9.279c-5.428-42.266-17.645-82.74-36.311-120.296l-0.216-0.433
 L925.998,285.774z"></path> </g> <g> <path fill="#ee2a59" d="M502,1000c-114.243,0-221.867-37.41-311.239-108.187c-5.86-4.642-6.853-13.187-2.212-19.048
 c2.248-2.841,5.468-4.636,9.066-5.054c3.599-0.415,7.144,0.591,9.983,2.843C292.128,937.497,393.931,972.881,502,972.881
 c77.113,0,150.313-17.685,217.573-52.564l-44.678-80.636c-35.121,18.042-72.933,30.43-112.394,36.817
 c-3.928,0.639-7.912-0.468-10.933-3.034c-2.983-2.533-4.699-6.228-4.708-10.138l-0.001-0.392
 c-0.015-6.597,4.784-12.166,11.411-13.24c73.302-11.893,139.956-46.085,192.756-98.879
 c39.106-39.109,67.715-85.066,85.042-136.612l-85.387-25.968c-6.211,17.559-14.351,34.529-24.201,50.449
 c-2.097,3.39-5.582,5.599-9.563,6.06c-4,0.468-7.932-0.899-10.775-3.741l-0.749-0.749c-4.288-4.288-5.004-10.981-1.742-16.279
 c22.847-37.107,34.923-79.977,34.923-123.974c0-44.308-12.239-87.441-35.394-124.735c-3.305-5.323-2.598-12.056,1.721-16.373
 l0.699-0.7c2.847-2.847,6.785-4.208,10.787-3.757c3.985,0.457,7.482,2.66,9.594,6.047c25.98,41.648,39.712,89.893,39.712,139.519
 c0,21.095-2.459,42.029-7.311,62.232l85.326,25.948c3.462-13.727,6.139-27.862,7.958-42.021
 c0.94-7.316,7.679-12.673,15.178-11.722c7.415,0.953,12.673,7.762,11.721,15.177c-10.663,83.034-47.409,158.506-106.262,218.255
 c-0.069,0.099-0.166,0.224-0.281,0.341c-0.161,0.16-0.322,0.313-0.484,0.465c-0.15,0.141-0.3,0.283-0.447,0.428
 c-0.146,0.147-0.288,0.297-0.428,0.447c-0.148,0.157-0.296,0.314-0.449,0.467c-0.105,0.104-0.215,0.19-0.327,0.274
 c-21.588,21.556-45.607,40.452-71.338,56.123l44.733,80.737c18.332-10.888,36.204-23.199,53.123-36.598v-0.001
 c5.866-4.638,14.41-3.646,19.048,2.214c4.642,5.862,3.649,14.407-2.213,19.048C723.867,962.59,616.243,1000,502,1000z
 M199.202,868.618c-0.488,0-0.979,0.028-1.472,0.086c-3.333,0.387-6.315,2.05-8.397,4.682c-4.299,5.429-3.38,13.345,2.049,17.645
 c89.193,70.634,196.603,107.97,310.618,107.97c114.016,0,221.426-37.336,310.619-107.97c5.43-4.299,6.35-12.215,2.051-17.645
 c-4.297-5.428-12.212-6.347-17.645-2.05v-0.001c-17.09,13.535-35.149,25.962-53.676,36.938l-0.442,0.261l-0.25-0.45
 l-45.447-82.025l0.41-0.25c25.82-15.678,49.914-34.611,71.614-56.271c0.129-0.103,0.205-0.16,0.274-0.228
 c0.143-0.144,0.285-0.295,0.426-0.445c0.088-0.094,0.176-0.186,0.265-0.279l-0.007-0.006l0.512-0.517l0.012,0.012
 c0.045-0.042,0.09-0.085,0.135-0.127c0.155-0.146,0.31-0.293,0.462-0.444c0.08-0.081,0.148-0.174,0.218-0.265
 c58.758-59.664,95.407-134.937,106.041-217.752c0.883-6.87-3.988-13.177-10.856-14.059c-6.959-0.887-13.189,4.081-14.06,10.857
 c-1.846,14.374-4.575,28.723-8.109,42.648l-0.129,0.507l-87.229-26.527l0.11-0.458c4.906-20.267,7.394-41.28,7.394-62.455
 c0-49.439-13.68-97.501-39.56-138.99c-1.95-3.127-5.18-5.162-8.86-5.582c-3.71-0.422-7.338,0.841-9.968,3.47l-0.7,0.7
 c-3.988,3.987-4.638,10.213-1.578,15.14C727.28,412.19,739.571,455.505,739.571,500c0,44.182-12.128,87.233-35.071,124.497
 c-3.018,4.902-2.361,11.091,1.598,15.049l0.749,0.749c2.626,2.626,6.258,3.888,9.954,3.456c3.675-0.426,6.893-2.465,8.829-5.593
 c9.896-15.996,18.061-33.055,24.267-50.706l0.159-0.452l0.458,0.139l86.828,26.405l-0.163,0.487
 c-17.361,51.891-46.107,98.147-85.442,137.484c-52.954,52.949-119.797,87.237-193.307,99.164
 c-6.139,0.996-10.586,6.149-10.572,12.253l0.001,0.39c0.008,3.617,1.596,7.036,4.355,9.379c2.797,2.376,6.492,3.4,10.126,2.811
 c39.519-6.398,77.378-18.826,112.527-36.941l0.431-0.222l45.646,82.382l-0.456,0.236C652.96,956.077,579.45,973.88,502,973.88
 c-108.296,0-210.314-35.459-295.022-102.543C204.736,869.56,202.019,868.618,199.202,868.618z"></path> </g> </g> </svg>